<?xml version="1.0" encoding="UTF-8" standalone="no"?>
<!DOCTYPE svg PUBLIC "-//W3C//DTD SVG 1.1//EN"
 "http://www.w3.org/Graphics/SVG/1.1/DTD/svg11.dtd">
<!-- Generated by graphviz version 2.40.1 (20161225.0304)
 -->
<!-- Title: G Pages: 1 -->
<svg width="342pt" height="727pt"
 viewBox="0.00 0.00 342.00 726.88" xmlns="http://www.w3.org/2000/svg" xmlns:xlink="http://www.w3.org/1999/xlink">
<g id="graph0" class="graph" transform="scale(1 1) rotate(0) translate(4 722.8835)">
<title>G</title>
<polygon fill="#ffffff" stroke="transparent" points="-4,4 -4,-722.8835 337.9972,-722.8835 337.9972,4 -4,4"/>
<!-- 1681692777 -->
<g id="node1" class="node">
<title>1681692777</title>
<polygon fill="#000000" stroke="#000000" points="115.499,-630.8881 31.499,-630.8881 31.499,-546.8881 115.499,-546.8881 115.499,-630.8881"/>
<text text-anchor="middle" x="73.499" y="-585.1881" font-family="Times,serif" font-size="14.00" fill="#000000">1681692777</text>
</g>
<!-- end -->
<g id="node9" class="node">
<title>end</title>
<ellipse fill="none" stroke="#000000" cx="73.499" cy="-487.4902" rx="23.2963" ry="23.2963"/>
<text text-anchor="middle" x="73.499" y="-483.7902" font-family="Times,serif" font-size="14.00" fill="#000000">end</text>
</g>
<!-- 1681692777&#45;&gt;end -->
<g id="edge16" class="edge">
<title>1681692777&#45;&gt;end</title>
<path fill="none" stroke="#000000" d="M73.499,-546.7672C73.499,-538.2925 73.499,-529.4885 73.499,-521.3397"/>
<polygon fill="#000000" stroke="#000000" points="76.9991,-521.0876 73.499,-511.0876 69.9991,-521.0876 76.9991,-521.0876"/>
</g>
<!-- 1804289383 -->
<g id="node2" class="node">
<title>1804289383</title>
<polygon fill="#000000" stroke="#000000" points="315.499,-428.0923 231.499,-428.0923 231.499,-344.0923 315.499,-344.0923 315.499,-428.0923"/>
<text text-anchor="middle" x="273.499" y="-382.3923" font-family="Times,serif" font-size="14.00" fill="#000000">1804289383</text>
</g>
<!-- p4 -->
<g id="node14" class="node">
<title>p4</title>
<ellipse fill="none" stroke="#000000" cx="314.499" cy="-284.0444" rx="19.4965" ry="19.4965"/>
<text text-anchor="middle" x="314.499" y="-280.3444" font-family="Times,serif" font-size="14.00" fill="#000000">p4</text>
</g>
<!-- 1804289383&#45;&gt;p4 -->
<g id="edge7" class="edge">
<title>1804289383&#45;&gt;p4</title>
<path fill="none" stroke="#000000" d="M290.4119,-343.9963C294.8126,-333.0432 299.4409,-321.5236 303.4512,-311.5419"/>
<polygon fill="#000000" stroke="#000000" points="306.7439,-312.7347 307.2243,-302.1507 300.2485,-310.125 306.7439,-312.7347"/>
</g>
<!-- p6 -->
<g id="node16" class="node">
<title>p6</title>
<ellipse fill="none" stroke="#000000" cx="257.499" cy="-284.0444" rx="19.4965" ry="19.4965"/>
<text text-anchor="middle" x="257.499" y="-280.3444" font-family="Times,serif" font-size="14.00" fill="#000000">p6</text>
</g>
<!-- 1804289383&#45;&gt;p6 -->
<g id="edge8" class="edge">
<title>1804289383&#45;&gt;p6</title>
<path fill="none" stroke="#000000" d="M266.8988,-343.9963C265.2977,-333.7844 263.6193,-323.08 262.1312,-313.5887"/>
<polygon fill="#000000" stroke="#000000" points="265.5529,-312.8162 260.5461,-303.479 258.6374,-313.9005 265.5529,-312.8162"/>
</g>
<!-- 846930886 -->
<g id="node3" class="node">
<title>846930886</title>
<polygon fill="#000000" stroke="#000000" points="295.999,-77 218.999,-77 218.999,0 295.999,0 295.999,-77"/>
<text text-anchor="middle" x="257.499" y="-34.8" font-family="Times,serif" font-size="14.00" fill="#000000">846930886</text>
</g>
<!-- p3 -->
<g id="node13" class="node">
<title>p3</title>
<ellipse fill="none" stroke="#000000" cx="108.499" cy="-692.8858" rx="19.4965" ry="19.4965"/>
<text text-anchor="middle" x="108.499" y="-689.1858" font-family="Times,serif" font-size="14.00" fill="#000000">p3</text>
</g>
<!-- 846930886&#45;&gt;p3 -->
<g id="edge9" class="edge">
<title>846930886&#45;&gt;p3</title>
<path fill="none" stroke="#000000" d="M218.9218,-45.4168C147.8661,-60.6189 3.499,-104.05 3.499,-205.9965 3.499,-487.4902 3.499,-487.4902 3.499,-487.4902 3.499,-551.7796 -10.4969,-575.712 22.499,-630.8881 36.0563,-653.5589 61.4411,-670.2955 81.1314,-680.6265"/>
<polygon fill="#000000" stroke="#000000" points="79.7525,-683.8499 90.2634,-685.1814 82.877,-677.5859 79.7525,-683.8499"/>
</g>
<!-- a -->
<g id="node4" class="node">
<title>a</title>
<polygon fill="none" stroke="#000000" points="261.499,-606.8881 225.499,-606.8881 225.499,-570.8881 261.499,-570.8881 261.499,-606.8881"/>
<text text-anchor="middle" x="243.499" y="-585.1881" font-family="Times,serif" font-size="14.00" fill="#000000">a</text>
</g>
<!-- p2 -->
<g id="node12" class="node">
<title>p2</title>
<ellipse fill="none" stroke="#000000" cx="219.499" cy="-487.4902" rx="19.4965" ry="19.4965"/>
<text text-anchor="middle" x="219.499" y="-483.7902" font-family="Times,serif" font-size="14.00" fill="#000000">p2</text>
</g>
<!-- a&#45;&gt;p2 -->
<g id="edge2" class="edge">
<title>a&#45;&gt;p2</title>
<path fill="none" stroke="#000000" d="M239.2082,-570.7602C235.6241,-555.6175 230.4488,-533.7523 226.3007,-516.227"/>
<polygon fill="#000000" stroke="#000000" points="229.7061,-515.4185 223.9969,-506.4936 222.8943,-517.0309 229.7061,-515.4185"/>
</g>
<!-- b -->
<g id="node5" class="node">
<title>b</title>
<polygon fill="none" stroke="#000000" points="332.499,-223.9965 296.499,-223.9965 296.499,-187.9965 332.499,-187.9965 332.499,-223.9965"/>
<text text-anchor="middle" x="314.499" y="-202.2965" font-family="Times,serif" font-size="14.00" fill="#000000">b</text>
</g>
<!-- p5 -->
<g id="node15" class="node">
<title>p5</title>
<ellipse fill="none" stroke="#000000" cx="314.499" cy="-132.4983" rx="19.4965" ry="19.4965"/>
<text text-anchor="middle" x="314.499" y="-128.7983" font-family="Times,serif" font-size="14.00" fill="#000000">p5</text>
</g>
<!-- b&#45;&gt;p5 -->
<g id="edge10" class="edge">
<title>b&#45;&gt;p5</title>
<path fill="none" stroke="#000000" d="M314.499,-187.8284C314.499,-180.0917 314.499,-170.8639 314.499,-162.1826"/>
<polygon fill="#000000" stroke="#000000" points="317.9991,-162.0015 314.499,-152.0015 310.9991,-162.0015 317.9991,-162.0015"/>
</g>
<!-- c -->
<g id="node6" class="node">
<title>c</title>
<polygon fill="none" stroke="#000000" points="275.499,-223.9965 239.499,-223.9965 239.499,-187.9965 275.499,-187.9965 275.499,-223.9965"/>
<text text-anchor="middle" x="257.499" y="-202.2965" font-family="Times,serif" font-size="14.00" fill="#000000">c</text>
</g>
<!-- p7 -->
<g id="node17" class="node">
<title>p7</title>
<ellipse fill="none" stroke="#000000" cx="257.499" cy="-132.4983" rx="19.4965" ry="19.4965"/>
<text text-anchor="middle" x="257.499" y="-128.7983" font-family="Times,serif" font-size="14.00" fill="#000000">p7</text>
</g>
<!-- c&#45;&gt;p7 -->
<g id="edge13" class="edge">
<title>c&#45;&gt;p7</title>
<path fill="none" stroke="#000000" d="M257.499,-187.8284C257.499,-180.0917 257.499,-170.8639 257.499,-162.1826"/>
<polygon fill="#000000" stroke="#000000" points="260.9991,-162.0015 257.499,-152.0015 253.9991,-162.0015 260.9991,-162.0015"/>
</g>
<!-- d -->
<g id="node7" class="node">
<title>d</title>
<polygon fill="none" stroke="#000000" points="213.499,-404.0923 177.499,-404.0923 177.499,-368.0923 213.499,-368.0923 213.499,-404.0923"/>
<text text-anchor="middle" x="195.499" y="-382.3923" font-family="Times,serif" font-size="14.00" fill="#000000">d</text>
</g>
<!-- p11 -->
<g id="node11" class="node">
<title>p11</title>
<ellipse fill="none" stroke="#000000" cx="195.499" cy="-284.0444" rx="24.0958" ry="24.0958"/>
<text text-anchor="middle" x="195.499" y="-280.3444" font-family="Times,serif" font-size="14.00" fill="#000000">p11</text>
</g>
<!-- d&#45;&gt;p11 -->
<g id="edge18" class="edge">
<title>d&#45;&gt;p11</title>
<path fill="none" stroke="#000000" d="M195.499,-367.8482C195.499,-354.2101 195.499,-335.1537 195.499,-318.6582"/>
<polygon fill="#000000" stroke="#000000" points="198.9991,-318.2707 195.499,-308.2708 191.9991,-318.2708 198.9991,-318.2707"/>
</g>
<!-- e -->
<g id="node8" class="node">
<title>e</title>
<polygon fill="none" stroke="#000000" points="187.499,-223.9965 151.499,-223.9965 151.499,-187.9965 187.499,-187.9965 187.499,-223.9965"/>
<text text-anchor="middle" x="169.499" y="-202.2965" font-family="Times,serif" font-size="14.00" fill="#000000">e</text>
</g>
<!-- e&#45;&gt;p3 -->
<g id="edge19" class="edge">
<title>e&#45;&gt;p3</title>
<path fill="none" stroke="#000000" d="M165.1471,-224.0219C157.7456,-256.3079 143.499,-326.2278 143.499,-386.0923 143.499,-487.4902 143.499,-487.4902 143.499,-487.4902 143.499,-551.4111 126.8224,-624.9519 116.492,-664.3755"/>
<polygon fill="#000000" stroke="#000000" points="113.0949,-663.531 113.891,-674.0959 119.857,-665.3404 113.0949,-663.531"/>
</g>
<!-- f -->
<g id="node10" class="node">
<title>f</title>
<polygon fill="none" stroke="#000000" points="207.499,-606.8881 171.499,-606.8881 171.499,-570.8881 207.499,-570.8881 207.499,-606.8881"/>
<text text-anchor="middle" x="189.499" y="-585.1881" font-family="Times,serif" font-size="14.00" fill="#000000">f</text>
</g>
<!-- f&#45;&gt;p2 -->
<g id="edge17" class="edge">
<title>f&#45;&gt;p2</title>
<path fill="none" stroke="#000000" d="M194.8624,-570.7602C199.3425,-555.6175 205.8117,-533.7523 210.9968,-516.227"/>
<polygon fill="#000000" stroke="#000000" points="214.3956,-517.0757 213.8765,-506.4936 207.6832,-515.0897 214.3956,-517.0757"/>
</g>
<!-- p11&#45;&gt;e -->
<g id="edge20" class="edge">
<title>p11&#45;&gt;e</title>
<path fill="none" stroke="#000000" d="M187.8387,-261.0496C184.9873,-252.4901 181.721,-242.6852 178.7425,-233.7443"/>
<polygon fill="#000000" stroke="#000000" points="182.0207,-232.5104 175.5395,-224.1292 175.3795,-234.7228 182.0207,-232.5104"/>
</g>
<!-- p2&#45;&gt;1804289383 -->
<g id="edge3" class="edge">
<title>p2&#45;&gt;1804289383</title>
<path fill="none" stroke="#000000" d="M228.905,-469.828C233.7691,-460.6946 239.9825,-449.0274 246.216,-437.3225"/>
<polygon fill="#000000" stroke="#000000" points="249.3534,-438.8773 250.9647,-428.4057 243.1749,-435.5869 249.3534,-438.8773"/>
</g>
<!-- p2&#45;&gt;d -->
<g id="edge4" class="edge">
<title>p2&#45;&gt;d</title>
<path fill="none" stroke="#000000" d="M214.9847,-468.418C211.3864,-453.2155 206.2929,-431.6959 202.216,-414.471"/>
<polygon fill="#000000" stroke="#000000" points="205.5405,-413.3209 199.8313,-404.396 198.7287,-414.9333 205.5405,-413.3209"/>
</g>
<!-- p3&#45;&gt;1681692777 -->
<g id="edge5" class="edge">
<title>p3&#45;&gt;1681692777</title>
<path fill="none" stroke="#000000" d="M102.2417,-674.2931C99.0456,-664.7964 94.9819,-652.7216 90.9236,-640.6629"/>
<polygon fill="#000000" stroke="#000000" points="94.1936,-639.4063 87.6867,-631.0451 87.5593,-641.6391 94.1936,-639.4063"/>
</g>
<!-- p3&#45;&gt;f -->
<g id="edge6" class="edge">
<title>p3&#45;&gt;f</title>
<path fill="none" stroke="#000000" d="M120.8594,-677.4037C130.8134,-664.8981 145.1347,-646.8208 157.499,-630.8881 161.4822,-625.7553 165.7126,-620.2453 169.7481,-614.9605"/>
<polygon fill="#000000" stroke="#000000" points="172.5913,-617.0038 175.8654,-606.9275 167.0223,-612.7627 172.5913,-617.0038"/>
</g>
<!-- p4&#45;&gt;b -->
<g id="edge11" class="edge">
<title>p4&#45;&gt;b</title>
<path fill="none" stroke="#000000" d="M314.499,-264.3496C314.499,-255.2629 314.499,-244.3057 314.499,-234.3516"/>
<polygon fill="#000000" stroke="#000000" points="317.9991,-234.08 314.499,-224.08 310.9991,-234.0801 317.9991,-234.08"/>
</g>
<!-- p5&#45;&gt;846930886 -->
<g id="edge12" class="edge">
<title>p5&#45;&gt;846930886</title>
<path fill="none" stroke="#000000" d="M304.3085,-115.6933C299.255,-107.3596 292.8697,-96.8296 286.4536,-86.249"/>
<polygon fill="#000000" stroke="#000000" points="289.2634,-84.1323 281.0855,-77.3964 283.2779,-87.7619 289.2634,-84.1323"/>
</g>
<!-- p6&#45;&gt;c -->
<g id="edge14" class="edge">
<title>p6&#45;&gt;c</title>
<path fill="none" stroke="#000000" d="M257.499,-264.3496C257.499,-255.2629 257.499,-244.3057 257.499,-234.3516"/>
<polygon fill="#000000" stroke="#000000" points="260.9991,-234.08 257.499,-224.08 253.9991,-234.0801 260.9991,-234.08"/>
</g>
<!-- p7&#45;&gt;846930886 -->
<g id="edge15" class="edge">
<title>p7&#45;&gt;846930886</title>
<path fill="none" stroke="#000000" d="M257.499,-112.5637C257.499,-105.0458 257.499,-96.1265 257.499,-87.1275"/>
<polygon fill="#000000" stroke="#000000" points="260.9991,-87.0039 257.499,-77.0039 253.9991,-87.0039 260.9991,-87.0039"/>
</g>
<!-- start -->
<g id="node18" class="node">
<title>start</title>
<ellipse fill="none" stroke="#000000" cx="243.499" cy="-692.8858" rx="25.9954" ry="25.9954"/>
<text text-anchor="middle" x="243.499" y="-689.1858" font-family="Times,serif" font-size="14.00" fill="#000000">start</text>
</g>
<!-- start&#45;&gt;a -->
<g id="edge1" class="edge">
<title>start&#45;&gt;a</title>
<path fill="none" stroke="#000000" d="M243.499,-666.6428C243.499,-651.4868 243.499,-632.4253 243.499,-616.9688"/>
<polygon fill="#000000" stroke="#000000" points="246.9991,-616.9363 243.499,-606.9363 239.9991,-616.9364 246.9991,-616.9363"/>
</g>
</g>
</svg>
